<svg
  id="box"
  xmlns="http://www.w3.org/2000/svg"
  viewBox="0 0 595.28 841.89"
><defs><style
    >.cls-1{fill:#8fc31f;stroke-width:10px;}.cls-1,.cls-2{stroke:#231815;stroke-miterlimit:10;}.cls-2{fill:#fff;stroke-width:5px;}.cls-3{fill:#231815;}</style></defs><rect
    class="cls-1"
    x="96.29"
    y="559.36"
    width="404.9"
    height="141.14"
  /><rect
    class="cls-1"
    x="81.46"
    y="513.66"
    width="432.36"
    height="45.7"
  /><rect
    class="cls-2"
    x="196.13"
    y="587.73"
    width="205.22"
    height="74.26"
    rx="14.49"
  /><path
    class="cls-3"
    d="M243,619a48.82,48.82,0,0,1,.41-5.36c.68-.05,1.5-.11,2.39-.11a8,8,0,0,1,2.19.33c0,1.77-.07,3.59-.07,5.47,1.91.16,3.89.33,5.88.55a15.39,15.39,0,0,1-.41,3.31c-2,0-3.9,0-5.61-.11-.14,2.71-.34,5.47-.48,8.29,1.78-.06,3.63-.11,5.47-.22a23,23,0,0,1,.28,3.2q-8.31.83-15.8.83a12,12,0,0,1-.41-3.15c1.92-.11,3.83-.28,5.81-.39,0-3.31,0-6.29.14-8.89a62.23,62.23,0,0,1-6.9-.72,28.52,28.52,0,0,1,.13-3.36Zm25.9-8.67c2.67.11,5.34.27,8,.44a11.94,11.94,0,0,1-.41,3.2c-7.52,0-15-.22-22.42-.72a13.93,13.93,0,0,1,.41-3.36c3,0,6,.11,9,.22a15.25,15.25,0,0,1-1-4.48,18.81,18.81,0,0,1,4.17-1A14,14,0,0,1,268.86,610.29Zm3.29,19.33c0,.82-1.3,3.2-3.76,7.06a1.73,1.73,0,0,0,.34.5l6.7-.66a22,22,0,0,1,.54,3.26c-1.91.33-3.76.6-5.6.82a20.1,20.1,0,0,1,1.09,6.41,14.68,14.68,0,0,1-4.37.61,22.73,22.73,0,0,1-6.43-.61,8.25,8.25,0,0,1,.14-2c1.64-.11,3.48-.11,5.4-.11-.21-1.27-.48-2.43-.75-3.65-3.28.33-6.57.61-9.85.83a16.76,16.76,0,0,1-.68-3.26c3-.38,6.08-.77,9.3-1.1a11.4,11.4,0,0,1-.69-1.55c.69-1.21,1.37-2.37,2.12-3.48-2.8-.44-5.54-.83-8.2-1.16v-3.26A110.48,110.48,0,0,1,272.15,629.62Zm2.46-13.09a8.36,8.36,0,0,1,.54,3.7,57.76,57.76,0,0,1-.27,6.07,30.31,30.31,0,0,1-6.63.5,76.91,76.91,0,0,1-12.1-.88q-.82-1.57-.82-5.64a20,20,0,0,1,.34-3.2,10.19,10.19,0,0,1,2.05-.22,12,12,0,0,1,2,.22c0,.77.07,2.71.21,5.74,3.55.33,7,.5,10.6.5a11.07,11.07,0,0,0,.34-3.09,1.37,1.37,0,0,0-.14-.44c-4.72-.34-7.66-.61-8.75-.83a2.79,2.79,0,0,1-.34-1.71,12.39,12.39,0,0,1,.07-1.61C266.06,615.75,270.37,616,274.61,616.53ZM288.35,615c-1,2-2,3.81-2.94,5.58q4.41.33,8.61.83a10.43,10.43,0,0,1-.61,3.26,77.45,77.45,0,0,1-10-.67c-1,1.66-2.06,3.26-3,4.75a10.24,10.24,0,0,1-4.31-1.82c2.46-4.47,5.06-9,7.93-13.59A29.34,29.34,0,0,1,288.35,615Zm3.76,15.63c-.89,1.55-1.92,3.15-3,4.69,1.91,1,3.9,2.05,5.81,3.1a10.94,10.94,0,0,1-2.26,2.76c-2.18-.83-4.23-1.66-6.15-2.54-1.16,1.38-2.39,2.76-3.69,4.08a5,5,0,0,1-3.35-1.65,41.74,41.74,0,0,1,2.67-4.53,48.31,48.31,0,0,1-4.58-2.54,26.7,26.7,0,0,1,2.18-3.15c1.64.77,3.29,1.49,4.93,2.26,1.09-1.43,2.32-2.81,3.62-4.25A7.68,7.68,0,0,1,292.11,630.61Z"
  /><path
    class="cls-3"
    d="M325.81,614.48c-1.57,3.87-5,12.82-10.26,26.73a14.45,14.45,0,0,1-4.44-1.21A161.17,161.17,0,0,1,321,613.21,13.8,13.8,0,0,1,325.81,614.48ZM344.4,617c-.54,7.18-.82,13.69-.82,19.66h10.87v-3.76c.75,0,1.37-.11,1.92-.11s1.36.06,2,.11a18,18,0,0,1,.34,3.15,14.21,14.21,0,0,1-.34,3.65,75.93,75.93,0,0,1-12,.66c-4.23,0-6.9-.22-8.13-.66,0-7.51.34-15.08,1-22.81a14.18,14.18,0,0,1,2.73-.17A16.54,16.54,0,0,1,344.4,617Z"
  /></svg>
