<svg id="body" xmlns="http://www.w3.org/2000/svg" viewBox="0 0 595.28 841.89"><defs><style>.cls-1{fill:#231815;}.cls-1,.cls-2{stroke:#231815;stroke-miterlimit:10;}.cls-2{fill:#fff;stroke-width:10px;}</style></defs><path class="cls-1" d="M219.36,173.37a63.11,63.11,0,0,1-117.23,46.79c-12.92-32.38,9.94-59.56,42.31-72.48S206.44,141,219.36,173.37Z"/><path class="cls-1" d="M381.7,164.69A63.11,63.11,0,0,0,490.88,228c17.49-30.15,1-55.72-29.11-73.21S399.2,134.54,381.7,164.69Z"/><path class="cls-2" d="M512.93,372.15c0,130.22-96.22,148-214.9,148s-214.9-26-214.9-148c0-100.34,96.22-181.67,214.9-181.67S512.93,271.81,512.93,372.15Z"/><path class="cls-1" d="M266,525.6c8.9-22.32-11.88-39.58-32.55-59.84-33.49-32.82-77.95-17.67-86.86,4.65s16.25,84.18,43.52,93.87C224.09,576.34,257.11,547.92,266,525.6Z"/><path class="cls-1" d="M341.37,523.88c-8.91-22.32,11.88-39.58,32.55-59.84,33.48-32.82,77.95-17.67,86.86,4.65s-16.25,84.19-43.53,93.87C383.3,574.62,350.28,546.2,341.37,523.88Z"/></svg>