<svg xmlns="http://www.w3.org/2000/svg" viewBox="0 0 595.28 841.89"><defs><style>.cls-1{fill:#8fc31f;}.cls-1,.cls-2,.cls-4,.cls-5,.cls-8{stroke:#231815;}.cls-1,.cls-2,.cls-4,.cls-5,.cls-6,.cls-7{stroke-miterlimit:10;}.cls-1,.cls-5,.cls-8{stroke-width:10px;}.cls-2,.cls-5,.cls-7{fill:#fff;}.cls-2{stroke-width:5px;}.cls-3,.cls-4,.cls-6,.cls-8{fill:#231815;}.cls-6,.cls-7{stroke:#fff;}.cls-6{stroke-width:3px;}.cls-8{stroke-linecap:round;stroke-linejoin:round;}</style></defs><g id="box"><rect class="cls-1" x="96.29" y="559.36" width="404.9" height="141.14"/><rect class="cls-1" x="81.46" y="513.66" width="432.36" height="45.7"/><rect class="cls-2" x="196.13" y="587.73" width="205.22" height="74.26" rx="14.49"/><path class="cls-3" d="M243,619a48.82,48.82,0,0,1,.41-5.36c.68-.05,1.5-.11,2.39-.11a8,8,0,0,1,2.19.33c0,1.77-.07,3.59-.07,5.47,1.91.16,3.89.33,5.88.55a15.39,15.39,0,0,1-.41,3.31c-2,0-3.9,0-5.61-.11-.14,2.71-.34,5.47-.48,8.29,1.78-.06,3.63-.11,5.47-.22a23,23,0,0,1,.28,3.2q-8.31.83-15.8.83a12,12,0,0,1-.41-3.15c1.92-.11,3.83-.28,5.81-.39,0-3.31,0-6.29.14-8.89a62.23,62.23,0,0,1-6.9-.72,28.52,28.52,0,0,1,.13-3.36Zm25.9-8.67c2.67.11,5.34.27,8,.44a11.94,11.94,0,0,1-.41,3.2c-7.52,0-15-.22-22.42-.72a13.93,13.93,0,0,1,.41-3.36c3,0,6,.11,9,.22a15.25,15.25,0,0,1-1-4.48,18.81,18.81,0,0,1,4.17-1A14,14,0,0,1,268.86,610.29Zm3.29,19.33c0,.82-1.3,3.2-3.76,7.06a1.73,1.73,0,0,0,.34.5l6.7-.66a22,22,0,0,1,.54,3.26c-1.91.33-3.76.6-5.6.82a20.1,20.1,0,0,1,1.09,6.41,14.68,14.68,0,0,1-4.37.61,22.73,22.73,0,0,1-6.43-.61,8.25,8.25,0,0,1,.14-2c1.64-.11,3.48-.11,5.4-.11-.21-1.27-.48-2.43-.75-3.65-3.28.33-6.57.61-9.85.83a16.76,16.76,0,0,1-.68-3.26c3-.38,6.08-.77,9.3-1.1a11.4,11.4,0,0,1-.69-1.55c.69-1.21,1.37-2.37,2.12-3.48-2.8-.44-5.54-.83-8.2-1.16v-3.26A110.48,110.48,0,0,1,272.15,629.62Zm2.46-13.09a8.36,8.36,0,0,1,.54,3.7,57.76,57.76,0,0,1-.27,6.07,30.31,30.31,0,0,1-6.63.5,76.91,76.91,0,0,1-12.1-.88q-.82-1.57-.82-5.64a20,20,0,0,1,.34-3.2,10.19,10.19,0,0,1,2.05-.22,12,12,0,0,1,2,.22c0,.77.07,2.71.21,5.74,3.55.33,7,.5,10.6.5a11.07,11.07,0,0,0,.34-3.09,1.37,1.37,0,0,0-.14-.44c-4.72-.34-7.66-.61-8.75-.83a2.79,2.79,0,0,1-.34-1.71,12.39,12.39,0,0,1,.07-1.61C266.06,615.75,270.37,616,274.61,616.53ZM288.35,615c-1,2-2,3.81-2.94,5.58q4.41.33,8.61.83a10.43,10.43,0,0,1-.61,3.26,77.45,77.45,0,0,1-10-.67c-1,1.66-2.06,3.26-3,4.75a10.24,10.24,0,0,1-4.31-1.82c2.46-4.47,5.06-9,7.93-13.59A29.34,29.34,0,0,1,288.35,615Zm3.76,15.63c-.89,1.55-1.92,3.15-3,4.69,1.91,1,3.9,2.05,5.81,3.1a10.94,10.94,0,0,1-2.26,2.76c-2.18-.83-4.23-1.66-6.15-2.54-1.16,1.38-2.39,2.76-3.69,4.08a5,5,0,0,1-3.35-1.65,41.74,41.74,0,0,1,2.67-4.53,48.31,48.31,0,0,1-4.58-2.54,26.7,26.7,0,0,1,2.18-3.15c1.64.77,3.29,1.49,4.93,2.26,1.09-1.43,2.32-2.81,3.62-4.25A7.68,7.68,0,0,1,292.11,630.61Z"/><path class="cls-3" d="M325.81,614.48c-1.57,3.87-5,12.82-10.26,26.73a14.45,14.45,0,0,1-4.44-1.21A161.17,161.17,0,0,1,321,613.21,13.8,13.8,0,0,1,325.81,614.48ZM344.4,617c-.54,7.18-.82,13.69-.82,19.66h10.87v-3.76c.75,0,1.37-.11,1.92-.11s1.36.06,2,.11a18,18,0,0,1,.34,3.15,14.21,14.21,0,0,1-.34,3.65,75.93,75.93,0,0,1-12,.66c-4.23,0-6.9-.22-8.13-.66,0-7.51.34-15.08,1-22.81a14.18,14.18,0,0,1,2.73-.17A16.54,16.54,0,0,1,344.4,617Z"/></g><g id="body"><path class="cls-4" d="M219.36,173.37a63.11,63.11,0,0,1-117.23,46.79c-12.92-32.38,9.94-59.56,42.31-72.48S206.44,141,219.36,173.37Z"/><path class="cls-4" d="M381.7,164.69A63.11,63.11,0,0,0,490.88,228c17.49-30.15,1-55.72-29.11-73.21S399.2,134.54,381.7,164.69Z"/><path class="cls-5" d="M512.93,372.15c0,130.22-96.22,148-214.9,148s-214.9-26-214.9-148c0-100.34,96.22-181.67,214.9-181.67S512.93,271.81,512.93,372.15Z"/><path class="cls-4" d="M266,525.6c8.9-22.32-11.88-39.58-32.55-59.84-33.49-32.82-77.95-17.67-86.86,4.65s16.25,84.18,43.52,93.87C224.09,576.34,257.11,547.92,266,525.6Z"/><path class="cls-4" d="M341.37,523.88c-8.91-22.32,11.88-39.58,32.55-59.84,33.48-32.82,77.95-17.67,86.86,4.65s-16.25,84.19-43.53,93.87C383.3,574.62,350.28,546.2,341.37,523.88Z"/></g><g id="face"><path class="cls-4" d="M142.64,373.8c-8.91-22.32,11.88-39.58,32.55-59.84,33.48-32.82,77.95-17.67,86.86,4.65s-16.25,84.19-43.53,93.87C184.57,424.54,151.55,396.12,142.64,373.8Z"/><circle class="cls-6" cx="224.25" cy="348.91" r="20.56"/><path class="cls-4" d="M452.39,373.8c8.91-22.32-11.88-39.58-32.55-59.84-33.48-32.82-77.95-17.67-86.85,4.65s16.24,84.19,43.52,93.87C410.46,424.54,443.48,396.12,452.39,373.8Z"/><circle class="cls-6" cx="370.78" cy="348.91" r="20.56"/><circle class="cls-7" cx="212.34" cy="347.12" r="1.93"/><circle class="cls-7" cx="223.21" cy="340.42" r="5.01"/><circle class="cls-7" cx="359.91" cy="346.88" r="1.93"/><circle class="cls-7" cx="370.78" cy="340.18" r="5.01"/><path class="cls-8" d="M297.55,364.88c.35,14.72,0,19.78,0,19.78Z"/><path class="cls-8" d="M317.75,395s-6.35,2.29-18.39-7.3"/><path class="cls-8" d="M277.84,395s6.35,2.29,18.38-7.3"/></g></svg>